name Walk6.mot
datacolumns 19
datarows 30
range 1.28000000 1.30900000
endheader

                time	   L_ground_force_vx	   L_ground_force_vy	   L_ground_force_vz	   L_ground_force_px	   L_ground_force_py	   L_ground_force_pz	   R_ground_force_vx	   R_ground_force_vy	   R_ground_force_vz	   R_ground_force_px	   R_ground_force_py	   R_ground_force_pz	   L_ground_torque_x	   L_ground_torque_y	   L_ground_torque_z	   R_ground_torque_x	   R_ground_torque_y	   R_ground_torque_z	
          1.28000000	          3.07969638	         42.16582455	         -0.67343096	          0.00208961	          0.00000000	          0.00144011	         -0.00000000	          0.00000000	          0.00000000	          0.00000000	          0.00000000	          0.00000000	          0.00000000	         -0.07174552	          0.00000000	          0.00000000	         -0.00000000	          0.00000000	
          1.28100000	          3.37246038	         47.65466989	         -0.70226496	         -0.02060365	          0.00000000	         -0.00077116	         -0.00000000	          0.00000000	          0.00000000	          0.00000000	          0.00000000	          0.00000000	          0.00000000	         -0.07749068	          0.00000000	          0.00000000	         -0.00000000	          0.00000000	
          1.28200000	          3.62943849	         53.27775740	         -0.73899098	         -0.04320815	          0.00000000	         -0.00296932	         -0.00000000	          0.00000000	          0.00000000	          0.00000000	          0.00000000	          0.00000000	          0.00000000	         -0.08307530	          0.00000000	          0.00000000	         -0.00000000	          0.00000000	
          1.28300000	          3.84703610	         59.02735490	         -0.78405858	         -0.06564683	          0.00000000	         -0.00514643	         -0.00000000	          0.00000000	          0.00000000	          0.00000000	          0.00000000	          0.00000000	          0.00000000	         -0.08846733	          0.00000000	          0.00000000	         -0.00000000	          0.00000000	
          1.28400000	          4.02164687	         64.89502754	         -0.83789837	         -0.08784759	          0.00000000	         -0.00729516	         -0.00000000	          0.00000000	          0.00000000	          0.00000000	          0.00000000	          0.00000000	          0.00000000	         -0.09363377	          0.00000000	          0.00000000	         -0.00000000	          0.00000000	
          1.28500000	          4.14968449	         70.87166045	         -0.90091579	         -0.10974506	          0.00000000	         -0.00940893	         -0.00000000	          0.00000000	          0.00000000	          0.00000000	          0.00000000	          0.00000000	          0.00000000	         -0.09854091	          0.00000000	          0.00000000	         -0.00000000	          0.00000000	
          1.28600000	          4.22761631	         76.94749913	         -0.97348450	         -0.13128063	          0.00000000	         -0.01148193	         -0.00000000	          0.00000000	          0.00000000	          0.00000000	          0.00000000	          0.00000000	          0.00000000	         -0.10315449	          0.00000000	          0.00000000	         -0.00000000	          0.00000000	
          1.28700000	          4.25199923	         83.11221519	         -1.05593892	         -0.15240212	          0.00000000	         -0.01350906	         -0.00000000	          0.00000000	          0.00000000	          0.00000000	          0.00000000	          0.00000000	          0.00000000	         -0.10743992	          0.00000000	          0.00000000	         -0.00000000	          0.00000000	
          1.28800000	          4.21951883	         89.35500615	         -1.14856531	         -0.17306339	          0.00000000	         -0.01548585	         -0.00000000	          0.00000000	          0.00000000	          0.00000000	          0.00000000	          0.00000000	          0.00000000	         -0.11136238	          0.00000000	          0.00000000	         -0.00000000	          0.00000000	
          1.28900000	          4.12703261	         95.66473515	         -1.25159065	         -0.19322398	          0.00000000	         -0.01740845	         -0.00000000	          0.00000000	          0.00000000	          0.00000000	          0.00000000	          0.00000000	          0.00000000	         -0.11488685	          0.00000000	          0.00000000	         -0.00000000	          0.00000000	
          1.29000000	          3.97161819	        102.03011194	         -1.36516908	         -0.21284876	          0.00000000	         -0.01927357	         -0.00000000	          0.00000000	          0.00000000	          0.00000000	          0.00000000	          0.00000000	          0.00000000	         -0.11797807	          0.00000000	          0.00000000	         -0.00000000	          0.00000000	
          1.29100000	          3.75062697	        108.43990900	         -1.48936614	         -0.23190758	          0.00000000	         -0.02107847	         -0.00000000	          0.00000000	          0.00000000	          0.00000000	          0.00000000	          0.00000000	          0.00000000	         -0.12060064	          0.00000000	          0.00000000	         -0.00000000	          0.00000000	
          1.29200000	          3.46174171	        114.88319724	         -1.62414147	         -0.25037502	          0.00000000	         -0.02282090	         -0.00000000	          0.00000000	          0.00000000	          0.00000000	          0.00000000	          0.00000000	          0.00000000	         -0.12271935	          0.00000000	          0.00000000	         -0.00000000	          0.00000000	
          1.29300000	          3.10303510	        121.34957817	         -1.76933208	         -0.26823004	          0.00000000	         -0.02449910	         -0.00000000	          0.00000000	          0.00000000	          0.00000000	          0.00000000	          0.00000000	          0.00000000	         -0.12429980	          0.00000000	          0.00000000	         -0.00000000	          0.00000000	
          1.29400000	          2.67302489	        127.82938710	         -1.92463819	         -0.28545570	          0.00000000	         -0.02611171	         -0.00000000	          0.00000000	          0.00000000	          0.00000000	          0.00000000	          0.00000000	          0.00000000	         -0.12530918	          0.00000000	          0.00000000	         -0.00000000	          0.00000000	
          1.29500000	          2.17072075	        134.31384622	         -2.08961396	         -0.30203889	          0.00000000	         -0.02765781	         -0.00000000	          0.00000000	          0.00000000	          0.00000000	          0.00000000	          0.00000000	          0.00000000	         -0.12571702	          0.00000000	          0.00000000	         -0.00000000	          0.00000000	
          1.29600000	          1.59565902	        140.79515500	         -2.26366467	         -0.31797009	          0.00000000	         -0.02913682	         -0.00000000	          0.00000000	          0.00000000	          0.00000000	          0.00000000	          0.00000000	          0.00000000	         -0.12549595	          0.00000000	          0.00000000	         -0.00000000	          0.00000000	
          1.29700000	          0.94792292	        147.26651627	         -2.44605058	         -0.33324305	          0.00000000	         -0.03054853	         -0.00000000	          0.00000000	          0.00000000	          0.00000000	          0.00000000	          0.00000000	          0.00000000	         -0.12462209	          0.00000000	          0.00000000	         -0.00000000	          0.00000000	
          1.29800000	          0.22814793	        153.72210567	         -2.63589698	         -0.34785458	          0.00000000	         -0.03189301	         -0.00000000	          0.00000000	          0.00000000	          0.00000000	          0.00000000	          0.00000000	          0.00000000	         -0.12307529	          0.00000000	          0.00000000	         -0.00000000	          0.00000000	
          1.29900000	         -0.56248638	        160.15699765	         -2.83220897	         -0.36180428	          0.00000000	         -0.03317066	         -0.00000000	          0.00000000	          0.00000000	          0.00000000	          0.00000000	          0.00000000	          0.00000000	         -0.12083908	          0.00000000	          0.00000000	         -0.00000000	          0.00000000	
          1.30000000	         -1.42227525	        166.56706312	         -3.03388927	         -0.37509432	          0.00000000	         -0.03438213	         -0.00000000	          0.00000000	          0.00000000	          0.00000000	          0.00000000	          0.00000000	          0.00000000	         -0.11790052	          0.00000000	          0.00000000	         -0.00000000	          0.00000000	
          1.30100000	         -2.34901518	        172.94885241	         -3.23975746	         -0.38772923	          0.00000000	         -0.03552832	         -0.00000000	          0.00000000	          0.00000000	          0.00000000	          0.00000000	          0.00000000	          0.00000000	         -0.11425006	          0.00000000	          0.00000000	         -0.00000000	          0.00000000	
          1.30200000	         -3.34003483	        179.29947445	         -3.44856957	         -0.39971565	          0.00000000	         -0.03661035	         -0.00000000	          0.00000000	          0.00000000	          0.00000000	          0.00000000	          0.00000000	          0.00000000	         -0.10988160	          0.00000000	          0.00000000	         -0.00000000	          0.00000000	
          1.30300000	         -4.39222770	        185.61648014	         -3.65903715	         -0.41106215	          0.00000000	         -0.03762953	         -0.00000000	          0.00000000	          0.00000000	          0.00000000	          0.00000000	          0.00000000	          0.00000000	         -0.10479278	          0.00000000	          0.00000000	         -0.00000000	          0.00000000	
          1.30400000	         -5.50208493	        191.89775525	         -3.86984512	         -0.42177904	          0.00000000	         -0.03858737	         -0.00000000	          0.00000000	          0.00000000	          0.00000000	          0.00000000	          0.00000000	          0.00000000	         -0.09898546	          0.00000000	          0.00000000	         -0.00000000	          0.00000000	
          1.30500000	         -6.66572739	        198.14142663	         -4.07966808	         -0.43187818	          0.00000000	         -0.03948551	         -0.00000000	          0.00000000	          0.00000000	          0.00000000	          0.00000000	          0.00000000	          0.00000000	         -0.09246631	          0.00000000	          0.00000000	         -0.00000000	          0.00000000	
          1.30600000	         -7.87893658	        204.34578394	         -4.28718470	         -0.44137278	          0.00000000	         -0.04032570	         -0.00000000	          0.00000000	          0.00000000	          0.00000000	          0.00000000	          0.00000000	          0.00000000	         -0.08524722	          0.00000000	          0.00000000	         -0.00000000	          0.00000000	
          1.30700000	         -9.13718458	        210.50921784	         -4.49109025	         -0.45027726	          0.00000000	         -0.04110982	         -0.00000000	          0.00000000	          0.00000000	          0.00000000	          0.00000000	          0.00000000	          0.00000000	         -0.07734572	          0.00000000	          0.00000000	         -0.00000000	          0.00000000	
          1.30800000	        -10.43566331	        216.63017472	         -4.69010752	         -0.45860708	          0.00000000	         -0.04183982	         -0.00000000	          0.00000000	          0.00000000	          0.00000000	          0.00000000	          0.00000000	          0.00000000	         -0.06878506	          0.00000000	          0.00000000	         -0.00000000	          0.00000000	
          1.30900000	        -11.76931353	        222.70712678	         -4.88299626	         -0.46637859	          0.00000000	         -0.04251771	         -0.00000000	          0.00000000	          0.00000000	          0.00000000	          0.00000000	          0.00000000	          0.00000000	         -0.05959423	          0.00000000	          0.00000000	          0.00000000	          0.00000000	
